<svg xmlns="http://www.w3.org/2000/svg" width="20" height="20" viewBox="0 0 20 20" fill="none">
  <path d="M7.89258 12.7333C7.73424 12.7333 7.57591 12.6749 7.45091 12.5499C6.76758 11.8666 6.39258 10.9583 6.39258 9.99993C6.39258 8.00827 8.00924 6.3916 10.0009 6.3916C10.9592 6.3916 11.8676 6.7666 12.5509 7.44993C12.6676 7.5666 12.7342 7.72494 12.7342 7.8916C12.7342 8.05827 12.6676 8.2166 12.5509 8.33327L8.33424 12.5499C8.20924 12.6749 8.05091 12.7333 7.89258 12.7333ZM10.0009 7.6416C8.70091 7.6416 7.64258 8.69993 7.64258 9.99993C7.64258 10.4166 7.75091 10.8166 7.95091 11.1666L11.1676 7.94993C10.8176 7.74993 10.4176 7.6416 10.0009 7.6416Z" fill="#292D32"/>
  <path d="M4.66667 15.4251C4.52501 15.4251 4.37501 15.3751 4.25834 15.2751C3.36667 14.5167 2.56667 13.5834 1.88334 12.5001C1.00001 11.1251 1.00001 8.8834 1.88334 7.50007C3.91667 4.31673 6.87501 2.4834 10 2.4834C11.8333 2.4834 13.6417 3.11673 15.225 4.3084C15.5 4.51673 15.5583 4.9084 15.35 5.1834C15.1417 5.4584 14.75 5.51673 14.475 5.3084C13.1083 4.27507 11.5583 3.7334 10 3.7334C7.30834 3.7334 4.73334 5.35007 2.93334 8.17507C2.30834 9.15007 2.30834 10.8501 2.93334 11.8251C3.55834 12.8001 4.27501 13.6417 5.06667 14.3251C5.32501 14.5501 5.35834 14.9417 5.13334 15.2084C5.01667 15.3501 4.84167 15.4251 4.66667 15.4251Z" fill="#292D32"/>
  <path d="M10 17.5166C8.89166 17.5166 7.80833 17.2916 6.76666 16.8499C6.45 16.7166 6.3 16.3499 6.43333 16.0333C6.56666 15.7166 6.93333 15.5666 7.25 15.6999C8.13333 16.0749 9.05833 16.2666 9.99166 16.2666C12.6833 16.2666 15.2583 14.6499 17.0583 11.8249C17.6833 10.8499 17.6833 9.14992 17.0583 8.17492C16.8 7.76658 16.5167 7.37492 16.2167 7.00825C16 6.74158 16.0417 6.34992 16.3083 6.12492C16.575 5.90825 16.9667 5.94158 17.1917 6.21658C17.5167 6.61658 17.8333 7.04992 18.1167 7.49992C19 8.87492 19 11.1166 18.1167 12.4999C16.0833 15.6833 13.125 17.5166 10 17.5166Z" fill="#292D32"/>
  <path d="M10.5756 13.5586C10.284 13.5586 10.0173 13.3503 9.95897 13.0503C9.8923 12.7086 10.1173 12.3836 10.459 12.3253C11.3756 12.1586 12.1423 11.392 12.309 10.4753C12.3756 10.1336 12.7006 9.91695 13.0423 9.97529C13.384 10.042 13.609 10.367 13.5423 10.7086C13.2756 12.1503 12.1256 13.292 10.6923 13.5586C10.6506 13.5503 10.6173 13.5586 10.5756 13.5586Z" fill="#292D32"/>
  <path d="M1.66589 18.9583C1.50755 18.9583 1.34922 18.8999 1.22422 18.7749C0.982552 18.5333 0.982552 18.1333 1.22422 17.8916L7.44922 11.6666C7.69088 11.4249 8.09089 11.4249 8.33255 11.6666C8.57422 11.9083 8.57422 12.3083 8.33255 12.5499L2.10755 18.7749C1.98255 18.8999 1.82422 18.9583 1.66589 18.9583Z" fill="#292D32"/>
  <path d="M12.1092 8.51686C11.9509 8.51686 11.7926 8.45853 11.6676 8.33353C11.4259 8.09186 11.4259 7.69186 11.6676 7.4502L17.8926 1.2252C18.1342 0.983529 18.5342 0.983529 18.7759 1.2252C19.0176 1.46686 19.0176 1.86686 18.7759 2.10853L12.5509 8.33353C12.4259 8.45853 12.2676 8.51686 12.1092 8.51686Z" fill="#292D32"/>
</svg>